<svg width="21" height="21" viewBox="0 0 21 21" fill="none" xmlns="http://www.w3.org/2000/svg">
<path d="M7.21954 0.664062C7.32994 0.674634 7.42187 0.691248 7.51151 0.768917C7.78664 1.0073 7.67252 1.58193 7.71288 1.91569C7.73384 2.08899 7.77038 2.28983 7.91615 2.39903C8.45869 2.80554 9.20166 2.02305 9.75064 1.97593C10.098 1.94612 10.4069 2.16196 10.7402 2.12981C11.1449 2.09076 11.1804 1.70618 11.3821 1.44002C11.4209 1.38885 11.5174 1.32105 11.5833 1.32675C12.0973 1.37119 12.1828 2.05924 12.388 2.42321C12.4706 2.56992 12.596 2.73645 12.7091 2.83714C13.0148 3.10938 13.3723 3.38987 13.7675 3.50701C14.1087 3.60811 14.6068 3.59525 14.8914 3.80956C15.0775 3.94975 15.108 4.21436 15.2964 4.40886C15.7795 4.55967 16.5561 4.47473 17.0863 4.55494C17.6374 4.60602 18.0763 4.88218 18.3953 5.33421C18.7914 5.89539 19.4023 5.88437 19.9436 6.21094C20.0822 6.29461 20.1977 6.449 20.2242 6.61915C20.3624 7.50993 19.6562 7.89371 19.1619 8.47765C19.0012 8.67354 18.9245 9.06721 18.7659 9.2705C18.6357 9.43729 18.3954 9.57675 18.3013 9.76749C18.015 10.3474 18.3076 11.0429 18.207 11.6581C18.1545 11.9788 17.9184 12.2282 17.808 12.4978C17.5336 13.1679 17.3727 13.8454 16.9493 14.445C16.4486 15.154 16.1992 14.8598 15.4921 14.9308C15.2584 14.9542 14.7698 15.2997 14.5579 15.4555C14.2473 15.6965 13.8175 15.9614 13.5844 16.2777C13.3754 16.5614 13.3874 17.0984 13.3429 17.4319C13.318 17.6183 13.2975 17.8207 13.1822 17.9757C12.8433 18.4317 12.4239 18.8222 12.0386 19.238C11.7663 19.5284 11.6013 19.7494 11.3774 20.0667C11.2633 20.2041 11.1067 20.3647 10.909 20.3495C10.3784 20.3087 10.3556 19.6598 9.94468 19.45C9.6434 19.2962 9.23577 19.2486 8.97981 19.0172C8.93637 18.9764 8.93773 18.8914 8.94164 18.8358C8.95873 18.6625 9.0981 18.4751 9.20207 18.3414C9.41946 18.0658 9.62127 17.7623 9.94187 17.5986C10.1767 17.4787 10.6756 17.3024 10.6993 17.0028C10.7181 16.7655 10.4371 16.5324 10.3712 16.2824C10.3003 16.0131 10.3841 15.7448 10.2945 15.4836C10.1343 15.1468 9.73569 14.8187 9.41583 14.6347C9.20941 14.5159 8.62894 14.3852 8.50799 14.2062C8.31845 13.9257 8.61965 13.1766 8.60973 12.8465C8.64941 12.3571 8.50805 11.5369 8.09646 11.2235C7.91506 11.0853 7.61682 11.0956 7.43504 10.8336C7.23306 10.5424 7.22567 10.1633 7.00261 9.90161C6.69768 9.54383 6.12447 9.60736 5.70449 9.57599C4.89724 9.5411 4.87579 9.09305 4.79088 8.42716C4.75971 8.18267 4.6655 8.06522 4.40017 8.12465C4.17227 8.17569 3.97687 8.30924 3.76129 8.3883C3.27991 8.56485 2.70663 8.63786 2.1971 8.60863C2.15028 8.41198 2.14388 8.26285 2.06256 8.06511C1.67417 7.8174 0.782859 7.71177 0.787125 7.07662C0.793142 6.85062 0.919238 6.62372 0.985876 6.41653C1.3002 5.43925 1.60032 5.35903 2.58949 5.3941C2.66232 4.93357 2.83895 4.52659 2.88983 4.07081C2.92477 3.75778 2.63067 3.55188 2.52629 3.28128C2.4276 3.02987 2.6503 2.92163 2.74377 2.71173C2.80884 2.56566 2.82636 2.27836 2.99592 2.23234C3.46286 2.1093 3.85792 2.26713 4.2559 2.52829C4.63939 2.77996 5.20485 2.7387 5.49836 2.35982C5.67887 2.12679 5.16995 1.5685 5.3393 1.33563C5.54081 1.05858 6.08786 1.31032 6.36172 1.17205C6.69544 1.01099 6.83361 0.733367 7.21954 0.664062Z" fill="black"/>
</svg>
