<svg width="392" height="134" viewBox="0 0 392 134" fill="none" xmlns="http://www.w3.org/2000/svg">
<path d="M142.474 13.7161H138.761C138.693 13.2357 138.555 12.809 138.345 12.436C138.136 12.0573 137.868 11.7351 137.54 11.4695C137.212 11.2039 136.834 11.0004 136.404 10.8591C135.98 10.7178 135.519 10.6471 135.022 10.6471C134.123 10.6471 133.341 10.8704 132.674 11.3169C132.007 11.7577 131.49 12.402 131.122 13.2498C130.755 14.0919 130.571 15.1149 130.571 16.3188C130.571 17.5565 130.755 18.5965 131.122 19.4386C131.495 20.2807 132.015 20.9165 132.682 21.3461C133.349 21.7756 134.121 21.9904 134.997 21.9904C135.488 21.9904 135.943 21.9254 136.362 21.7954C136.785 21.6654 137.161 21.4761 137.489 21.2274C137.817 20.9731 138.088 20.665 138.303 20.3033C138.523 19.9416 138.676 19.529 138.761 19.0656L142.474 19.0825C142.378 19.8794 142.138 20.6481 141.753 21.3885C141.375 22.1232 140.863 22.7817 140.219 23.3638C139.58 23.9403 138.817 24.3981 137.93 24.7372C137.048 25.0706 136.051 25.2374 134.937 25.2374C133.389 25.2374 132.004 24.887 130.783 24.1861C129.568 23.4853 128.607 22.4708 127.901 21.1426C127.2 19.8144 126.85 18.2065 126.85 16.3188C126.85 14.4254 127.206 12.8146 127.918 11.4864C128.63 10.1583 129.596 9.14658 130.817 8.45141C132.038 7.75058 133.411 7.40016 134.937 7.40016C135.943 7.40016 136.876 7.54146 137.735 7.82405C138.6 8.10665 139.366 8.51923 140.032 9.06181C140.699 9.59873 141.242 10.2572 141.66 11.0371C142.084 11.8171 142.355 12.7101 142.474 13.7161ZM150.922 25.2543C149.605 25.2543 148.466 24.9746 147.506 24.415C146.55 23.8499 145.813 23.0642 145.293 22.0582C144.773 21.0465 144.513 19.8738 144.513 18.5399C144.513 17.1948 144.773 16.0192 145.293 15.0132C145.813 14.0015 146.55 13.2159 147.506 12.6564C148.466 12.0912 149.605 11.8086 150.922 11.8086C152.239 11.8086 153.375 12.0912 154.33 12.6564C155.291 13.2159 156.031 14.0015 156.551 15.0132C157.071 16.0192 157.331 17.1948 157.331 18.5399C157.331 19.8738 157.071 21.0465 156.551 22.0582C156.031 23.0642 155.291 23.8499 154.33 24.415C153.375 24.9746 152.239 25.2543 150.922 25.2543ZM150.939 22.4567C151.538 22.4567 152.038 22.2871 152.44 21.948C152.841 21.6032 153.143 21.1341 153.347 20.5407C153.556 19.9473 153.66 19.2719 153.66 18.5145C153.66 17.7572 153.556 17.0818 153.347 16.4883C153.143 15.8949 152.841 15.4258 152.44 15.081C152.038 14.7363 151.538 14.5639 150.939 14.5639C150.334 14.5639 149.826 14.7363 149.413 15.081C149.006 15.4258 148.698 15.8949 148.489 16.4883C148.286 17.0818 148.184 17.7572 148.184 18.5145C148.184 19.2719 148.286 19.9473 148.489 20.5407C148.698 21.1341 149.006 21.6032 149.413 21.948C149.826 22.2871 150.334 22.4567 150.939 22.4567ZM165.563 25.2543C164.246 25.2543 163.108 24.9746 162.147 24.415C161.192 23.8499 160.454 23.0642 159.934 22.0582C159.414 21.0465 159.154 19.8738 159.154 18.5399C159.154 17.1948 159.414 16.0192 159.934 15.0132C160.454 14.0015 161.192 13.2159 162.147 12.6564C163.108 12.0912 164.246 11.8086 165.563 11.8086C166.88 11.8086 168.016 12.0912 168.971 12.6564C169.932 13.2159 170.673 14.0015 171.192 15.0132C171.712 16.0192 171.972 17.1948 171.972 18.5399C171.972 19.8738 171.712 21.0465 171.192 22.0582C170.673 23.0642 169.932 23.8499 168.971 24.415C168.016 24.9746 166.88 25.2543 165.563 25.2543ZM165.58 22.4567C166.179 22.4567 166.679 22.2871 167.081 21.948C167.482 21.6032 167.784 21.1341 167.988 20.5407C168.197 19.9473 168.302 19.2719 168.302 18.5145C168.302 17.7572 168.197 17.0818 167.988 16.4883C167.784 15.8949 167.482 15.4258 167.081 15.081C166.679 14.7363 166.179 14.5639 165.58 14.5639C164.975 14.5639 164.467 14.7363 164.054 15.081C163.647 15.4258 163.339 15.8949 163.13 16.4883C162.927 17.0818 162.825 17.7572 162.825 18.5145C162.825 19.2719 162.927 19.9473 163.13 20.5407C163.339 21.1341 163.647 21.6032 164.054 21.948C164.467 22.2871 164.975 22.4567 165.58 22.4567ZM174.321 25V11.9782H177.822V14.2502H177.958C178.195 13.442 178.594 12.8316 179.153 12.419C179.713 12.0008 180.357 11.7916 181.086 11.7916C181.267 11.7916 181.462 11.8029 181.671 11.8256C181.88 11.8482 182.064 11.8792 182.222 11.9188V15.1234C182.053 15.0725 181.818 15.0273 181.518 14.9878C181.219 14.9482 180.945 14.9284 180.696 14.9284C180.165 14.9284 179.69 15.0443 179.272 15.276C178.859 15.5021 178.531 15.8186 178.288 16.2255C178.051 16.6324 177.932 17.1016 177.932 17.6328V25H174.321ZM188.282 25.2119C187.292 25.2119 186.397 24.9576 185.594 24.4489C184.797 23.9346 184.164 23.1801 183.695 22.1854C183.232 21.185 183 19.9586 183 18.506C183 17.0139 183.24 15.7734 183.72 14.7843C184.201 13.7896 184.84 13.0464 185.636 12.5546C186.439 12.0573 187.318 11.8086 188.273 11.8086C189.002 11.8086 189.61 11.9329 190.096 12.1816C190.587 12.4247 190.983 12.7299 191.283 13.0972C191.588 13.4589 191.82 13.815 191.978 14.1654H192.088V7.63754H195.691V25H192.13V22.9145H191.978C191.808 23.2762 191.568 23.6351 191.257 23.9911C190.952 24.3416 190.554 24.6326 190.062 24.8644C189.576 25.0961 188.982 25.2119 188.282 25.2119ZM189.426 22.338C190.008 22.338 190.5 22.1797 190.901 21.8632C191.308 21.5411 191.619 21.0918 191.834 20.5153C192.054 19.9388 192.164 19.2634 192.164 18.4891C192.164 17.7148 192.057 17.0422 191.842 16.4714C191.627 15.9005 191.317 15.4597 190.91 15.1488C190.503 14.838 190.008 14.6826 189.426 14.6826C188.833 14.6826 188.332 14.8436 187.925 15.1658C187.519 15.488 187.211 15.9344 187.001 16.5053C186.792 17.0761 186.688 17.7374 186.688 18.4891C186.688 19.2464 186.792 19.9162 187.001 20.4983C187.216 21.0748 187.524 21.5269 187.925 21.8548C188.332 22.1769 188.833 22.338 189.426 22.338ZM200.771 25.2204C200.212 25.2204 199.731 25.0226 199.33 24.627C198.935 24.2257 198.737 23.7453 198.737 23.1858C198.737 22.6319 198.935 22.1571 199.33 21.7615C199.731 21.3659 200.212 21.1681 200.771 21.1681C201.314 21.1681 201.789 21.3659 202.196 21.7615C202.603 22.1571 202.806 22.6319 202.806 23.1858C202.806 23.5588 202.71 23.9007 202.518 24.2116C202.331 24.5168 202.085 24.7626 201.78 24.9491C201.475 25.13 201.139 25.2204 200.771 25.2204ZM210.548 25V7.63754H214.219V21.9734H221.663V25H210.548ZM224.026 25V11.9782H227.637V25H224.026ZM224.543 10.2996L226.34 6.44218H229.681L227.095 10.2996H224.543ZM235.329 25.2119C234.34 25.2119 233.444 24.9576 232.641 24.4489C231.845 23.9346 231.212 23.1801 230.742 22.1854C230.279 21.185 230.047 19.9586 230.047 18.506C230.047 17.0139 230.287 15.7734 230.768 14.7843C231.248 13.7896 231.887 13.0464 232.684 12.5546C233.486 12.0573 234.365 11.8086 235.32 11.8086C236.049 11.8086 236.657 11.9329 237.143 12.1816C237.635 12.4247 238.03 12.7299 238.33 13.0972C238.635 13.4589 238.867 13.815 239.025 14.1654H239.135V7.63754H242.738V25H239.178V22.9145H239.025C238.856 23.2762 238.615 23.6351 238.305 23.9911C237.999 24.3416 237.601 24.6326 237.109 24.8644C236.623 25.0961 236.03 25.2119 235.329 25.2119ZM236.473 22.338C237.056 22.338 237.547 22.1797 237.949 21.8632C238.355 21.5411 238.666 21.0918 238.881 20.5153C239.101 19.9388 239.212 19.2634 239.212 18.4891C239.212 17.7148 239.104 17.0422 238.89 16.4714C238.675 15.9005 238.364 15.4597 237.957 15.1488C237.55 14.838 237.056 14.6826 236.473 14.6826C235.88 14.6826 235.38 14.8436 234.973 15.1658C234.566 15.488 234.258 15.9344 234.049 16.5053C233.84 17.0761 233.735 17.7374 233.735 18.4891C233.735 19.2464 233.84 19.9162 234.049 20.4983C234.264 21.0748 234.572 21.5269 234.973 21.8548C235.38 22.1769 235.88 22.338 236.473 22.338ZM251.642 25.2543C250.303 25.2543 249.15 24.983 248.183 24.4405C247.222 23.8922 246.482 23.1179 245.962 22.1176C245.442 21.1115 245.182 19.9218 245.182 18.5484C245.182 17.2089 245.442 16.0334 245.962 15.0217C246.482 14.01 247.214 13.2216 248.158 12.6564C249.107 12.0912 250.221 11.8086 251.498 11.8086C252.357 11.8086 253.157 11.9471 253.897 12.224C254.643 12.4953 255.293 12.9051 255.847 13.4533C256.407 14.0015 256.842 14.691 257.153 15.5219C257.464 16.347 257.619 17.3135 257.619 18.4213V19.4132H246.623V17.175H254.219C254.219 16.6551 254.106 16.1944 253.88 15.7932C253.654 15.3919 253.341 15.0782 252.939 14.8521C252.544 14.6204 252.083 14.5045 251.557 14.5045C251.009 14.5045 250.523 14.6317 250.099 14.886C249.681 15.1347 249.353 15.471 249.116 15.8949C248.878 16.3131 248.757 16.7794 248.751 17.2937V19.4216C248.751 20.0659 248.87 20.6226 249.107 21.0918C249.35 21.5609 249.692 21.9226 250.133 22.1769C250.574 22.4312 251.097 22.5584 251.702 22.5584C252.103 22.5584 252.47 22.5019 252.804 22.3888C253.137 22.2758 253.423 22.1063 253.66 21.8802C253.897 21.6541 254.078 21.3772 254.202 21.0494L257.543 21.2698C257.373 22.0723 257.026 22.7732 256.5 23.3723C255.98 23.9657 255.307 24.4292 254.482 24.7626C253.663 25.0904 252.716 25.2543 251.642 25.2543ZM259.976 25V11.9782H263.477V14.2502H263.613C263.85 13.442 264.249 12.8316 264.808 12.419C265.368 12.0008 266.012 11.7916 266.741 11.7916C266.922 11.7916 267.117 11.8029 267.326 11.8256C267.535 11.8482 267.719 11.8792 267.877 11.9188V15.1234C267.708 15.0725 267.473 15.0273 267.173 14.9878C266.874 14.9482 266.6 14.9284 266.351 14.9284C265.82 14.9284 265.345 15.0443 264.927 15.276C264.514 15.5021 264.186 15.8186 263.943 16.2255C263.706 16.6324 263.587 17.1016 263.587 17.6328V25H259.976Z" fill="#323232"></path>
<path d="M119.63 76.1394C134.386 76.0869 147.674 73.7064 145.754 93.9755C145.047 101.446 148.193 110.974 140.976 116.154C144.306 118.599 147.87 121.317 151.257 123.636C147.415 123.533 143.408 123.647 139.527 123.593L137.277 122.139C135.767 121.252 132.84 119.376 131.498 118.356L120.667 118.364C114.996 118.377 105.677 119.018 101.347 114.819C97.2685 110.604 98.4216 103.07 98.226 97.8428C97.4808 77.937 100.52 76.1346 119.63 76.1394ZM131.598 110.111C133.126 109.807 134.599 109.518 135.521 108.11C136.135 107.171 136.333 105.887 136.46 104.792C136.815 101.72 136.842 90.7574 136.213 87.8463C135.946 86.6158 135.25 85.6472 134.181 84.9739C132.228 83.744 115.548 83.9806 112.528 84.3154C109.36 84.9268 107.796 85.7955 107.691 89.3383C107.562 94.872 107.323 100.796 107.83 106.288C108.087 109.065 110.472 110.2 112.913 110.169C118.71 110.095 125.974 110.696 131.598 110.111Z" fill="#244A9B"></path>
<path d="M44.141 65.2073C47.9629 64.8389 53.9691 68.0167 57.1225 70.2685C64.5421 75.4568 69.5894 83.3923 71.1465 92.3177C72.6496 101.332 70.8738 110.464 65.5416 117.941C74.5919 123.915 73.5442 136.287 62.3005 131.006C60.2061 130.022 53.2493 123.086 51.1321 121.028L43.7817 113.771C41.6547 111.668 38.0309 108.715 37.9126 105.56C37.7986 103.036 41.0631 99.8258 43.5426 100.002C48.465 100.351 53.9304 106.661 57.3389 109.924C59.9416 106.038 60.8562 100.385 60.3558 95.7968C59.446 87.4566 54.0557 80.281 46.3042 77.0917C43.165 75.8259 38.5119 75.6287 38.0826 71.3677C37.9441 69.9148 38.3786 68.4653 39.293 67.3286C40.7007 65.6092 42.1368 65.4011 44.141 65.2073Z" fill="#244A9B"></path>
<path d="M252.742 76.1217C254.798 75.6893 263.359 76.0368 265.988 76.0203L265.952 84.0654C264.079 84.0535 262.141 83.994 260.268 84.033C250.375 84.2386 248.799 82.8329 248.639 93.4446L283.697 93.4115C283.565 95.585 283.647 98.6806 283.637 100.924C272.153 100.747 260.182 100.91 248.65 100.919C248.669 104.727 247.853 109.024 252.43 110.069C254.505 110.458 260.829 110.319 263.242 110.318L283.697 110.297C283.611 112.935 283.657 115.65 283.672 118.294C276.631 118.05 268.766 118.456 261.651 118.352C250.069 118.183 239.202 119.712 239.471 104.147C239.579 98.0041 239.041 91.4622 239.932 85.3232C241.049 77.9384 246.334 76.7707 252.742 76.1217Z" fill="#244A9B"></path>
<path d="M305.911 76.1229C307.544 75.9053 314.037 76.0384 315.9 76.0392L336.779 76.0369L336.783 84.101L317.898 84.087C314.535 84.0857 311.018 83.8768 307.674 84.1971C306.515 84.3081 304.442 84.5202 303.574 85.347C302.05 86.7992 301.88 89.4739 301.851 91.4349C301.795 95.1754 301.455 102.519 302.059 105.893C302.247 106.944 302.646 108.225 303.415 108.996C305.475 111.069 319.604 110.32 323.065 110.31L336.779 110.302V118.335L317.034 118.356C301.103 118.371 291.271 119.978 292.531 99.6746C293.313 87.0714 289.156 77.8693 305.911 76.1229Z" fill="#244A9B"></path>
<path d="M380.846 76.0779L389.688 76.0665C389.523 86.3725 389.659 97.0707 389.642 107.403C386.812 107.296 383.731 107.364 380.882 107.376L380.89 101.628L354.377 101.657L354.392 118.35L345.378 118.352C345.317 104.295 345.516 90.1327 345.346 76.0869L354.394 76.0724V92.8345C362.638 92.5845 372.564 92.7601 380.88 92.8236L380.846 76.0779Z" fill="#244A9B"></path>
<path d="M186.412 76.0651C200.882 76.3188 216.112 76.0779 230.652 76.0682L230.651 84.8684L212.999 84.8642L213.003 100.834L213.009 118.346L204.102 118.352C204.113 107.219 204.01 95.9763 204.132 84.8535L186.434 84.8705L186.412 76.0651Z" fill="#244A9B"></path>
<path d="M10.0977 99.4098C13.9185 99.1969 15.4098 101.293 16.3443 104.598C18.8828 113.884 27.0456 120.521 36.6444 121.103C40.6288 121.342 47.0936 119.457 48.4684 124.901C49.2624 128.044 47.4391 130.982 44.3151 131.819C38.0026 133.309 29.1417 131.881 23.309 128.857C15.2667 124.731 9.14357 117.451 6.22026 108.91C4.71483 104.511 5.19275 100.945 10.0977 99.4098Z" fill="#244A9B"></path>
<path d="M160.029 76.0647C162.892 76.1225 166.006 76.0653 168.888 76.062C168.699 90.0211 168.865 104.379 168.864 118.369L160.04 118.353L160.029 76.0647Z" fill="#244A9B"></path>
<path d="M29.1462 84.8443C33.7345 83.8269 38.2762 86.7322 39.2816 91.328C40.2869 95.9239 37.3736 100.463 32.7805 101.459C28.2031 102.45 23.6873 99.5463 22.6855 94.9662C21.6835 90.3862 24.5738 85.8583 29.1462 84.8443Z" fill="#244A9B"></path>
<path d="M21.4877 62.2107C25.0251 61.5477 28.442 63.8403 29.174 67.3678C29.906 70.8954 27.6836 74.3606 24.1749 75.1627C21.843 75.6958 19.4054 74.9258 17.8015 73.1494C16.1975 71.373 15.6777 68.8675 16.4423 66.5985C17.2069 64.3296 19.1365 62.6514 21.4877 62.2107Z" fill="#244A9B"></path>
<path d="M12.2512 82.122C14.2063 81.9026 16.1277 82.7552 17.2781 84.3529C18.4286 85.9506 18.6294 88.045 17.8036 89.8324C16.9778 91.6199 15.2535 92.8231 13.2924 92.9801C10.3265 93.2174 7.7188 91.029 7.43448 88.064C7.15016 85.0989 9.29434 82.4539 12.2512 82.122Z" fill="#244A9B"></path>
<path d="M380.874 109.561L389.707 109.553L389.703 118.352L380.876 118.356L380.874 109.561Z" fill="#244A9B"></path>
<path d="M4.22059 69.6648C5.77367 69.3388 7.37667 69.9266 8.352 71.1797C9.32733 72.4328 9.5048 74.1325 8.80936 75.5605C8.23688 76.7359 7.14571 77.5736 5.8632 77.822C3.62196 78.2563 1.45038 76.7996 0.999255 74.5593C0.548131 72.319 1.98635 70.1338 4.22059 69.6648Z" fill="#244A9B"></path>
</svg>