<svg width="1765" height="404" viewBox="0 0 1765 404" fill="none" xmlns="http://www.w3.org/2000/svg">
<path d="M1754.08 65.296V338.56H1676.79V125.024H1626.04V65.296H1754.08Z" fill="white"></path>
<path d="M1615.39 65.296V338.56H1538.09V125.024H1487.34V65.296H1615.39Z" fill="white"></path>
<path d="M1306.16 65.2963H1383.45V277.271H1513.84V338.561H1306.16V65.2963Z" fill="white"></path>
<path d="M1282.79 278.833V338.561H1063.4V65.2963H1277.72V125.024H1139.92V171.089H1261.32V228.865H1139.92V278.833H1282.79Z" fill="white"></path>
<path d="M1028.39 65.296V338.56H964.763L844.136 192.949V338.56H768.403V65.296H832.035L952.661 210.907V65.296H1028.39Z" fill="white"></path>
<path d="M631.199 344.025C609.078 344.025 587.607 341.293 566.787 335.827C545.967 330.362 529.051 323.075 516.038 313.966L541.413 256.971C553.644 265.039 567.828 271.545 583.964 276.49C600.099 281.435 615.975 283.907 631.59 283.907C661.259 283.907 676.093 276.49 676.093 261.656C676.093 253.848 671.799 248.123 663.21 244.479C654.882 240.575 641.349 236.541 622.611 232.377C602.051 227.953 584.875 223.269 571.081 218.324C557.288 213.119 545.447 204.921 535.557 193.73C525.667 182.539 520.723 167.445 520.723 148.446C520.723 131.79 525.277 116.826 534.386 103.553C543.495 90.0197 557.028 79.3494 574.985 71.5418C593.203 63.7343 615.454 59.8305 641.74 59.8305C659.697 59.8305 677.394 61.9125 694.831 66.0766C712.268 69.9803 727.623 75.836 740.896 83.6435L717.083 141.029C691.057 126.975 665.813 119.949 641.349 119.949C625.994 119.949 614.804 122.291 607.777 126.975C600.75 131.4 597.237 137.255 597.237 144.542C597.237 151.83 601.401 157.295 609.729 160.938C618.057 164.582 631.46 168.355 649.938 172.259C670.758 176.684 687.934 181.498 701.467 186.703C715.261 191.648 727.102 199.716 736.992 210.907C747.142 221.837 752.217 236.802 752.217 255.8C752.217 272.196 747.662 287.03 738.553 300.303C729.445 313.576 715.781 324.246 697.564 332.314C679.346 340.122 657.225 344.025 631.199 344.025Z" fill="white"></path>
<path d="M63.1829 55.7041C123.923 -5.03542 216.264 -15.9004 291.582 22.123L286.088 27.6172C221.318 -7.00176 140.67 1.59612 87.967 54.2988C22.8771 119.389 25.0619 227.105 92.8469 294.89C160.632 362.674 268.348 364.859 333.438 299.77C349.112 284.095 360.883 265.947 368.779 246.481L329.031 245.813L383.021 148.559L440.251 247.685L403.343 247.063C396.144 282.84 378.899 316.651 351.514 344.036C275.059 420.491 148.535 417.924 68.9143 338.304C-10.7062 258.683 -13.272 132.159 63.1829 55.7041Z" fill="white"></path>
<path d="M257.179 165.911H324.662L187.141 349.977L222.889 201.879H155.406L292.927 17.8114L257.179 165.911Z" fill="#D42126"></path>
</svg>