<svg width="1647" height="624" viewBox="0 0 1647 624" fill="none" xmlns="http://www.w3.org/2000/svg" xmlns:xlink="http://www.w3.org/1999/xlink">
<rect width="1646.83" height="551.713" rx="275.857" fill="#F4F8FF"></rect>
<rect width="1646.83" height="551.713" rx="275.857" fill="url(#paint0_linear_70_344)"></rect>
<path d="M459.768 156.922V132.053C459.768 128.865 459.007 126.412 457.487 124.696C456.015 122.93 453.857 122.047 451.012 122.047C447.971 122.047 445.616 122.709 443.948 124.033C442.33 125.358 441.52 127.246 441.52 129.699V130.655H425.848V129.037C425.701 123.788 428.007 119.594 432.765 116.455C437.572 113.267 443.948 111.672 451.895 111.672C460.234 111.672 466.463 113.463 470.583 117.044C474.753 120.575 476.837 125.799 476.837 132.715V155.892C476.837 158.149 476.985 160.307 477.279 162.367C477.622 164.378 478.186 166.389 478.971 168.4H462.784C461.754 167.027 460.994 165.261 460.503 163.103C460.013 160.896 459.768 158.835 459.768 156.922ZM460.43 135.144V143.752H451.527C447.799 143.703 444.929 144.365 442.918 145.739C440.907 147.112 439.902 149.05 439.902 151.551C439.902 154.004 440.637 155.892 442.109 157.217C443.63 158.492 445.788 159.13 448.584 159.13C450.987 159.13 453.44 158.271 455.942 156.554C458.443 154.789 459.719 153.096 459.768 151.478L460.798 159.939C459.375 162.097 456.996 164.207 453.661 166.267C450.374 168.327 446.205 169.357 441.153 169.357C435.413 169.357 430.95 167.934 427.761 165.089C424.622 162.195 423.053 158.051 423.053 152.655C423.053 147.161 425.186 142.869 429.454 139.779C433.77 136.689 439.73 135.144 447.333 135.144H460.43Z" fill="#2362C9"></path>
<path d="M167.515 352.046V337.457L248.333 337.92V349.73C248.333 366.095 251.884 378.136 258.985 385.855C266.087 393.575 276.276 397.434 289.553 397.434C302.675 397.434 312.941 393.034 320.352 384.234C327.762 375.28 331.467 359.148 331.467 335.836C331.467 313.142 327.839 298.013 320.583 290.448C313.482 282.883 304.219 279.101 292.795 279.101C283.377 279.101 275.041 281.185 267.785 285.354C260.683 289.367 255.589 294.616 252.501 301.1L175.156 289.753L192.987 110.98H397.233V175.357L252.964 173.505L246.48 246.45C254.971 240.583 265.238 235.797 277.279 232.092C289.476 228.387 301.98 226.534 314.794 226.534C341.656 226.534 364.736 235.025 384.034 252.007C403.486 268.989 413.212 295.851 413.212 332.594C413.212 370.572 402.482 400.136 381.023 421.286C359.564 442.282 329.537 452.78 290.942 452.78C254.508 452.78 224.79 444.134 201.787 426.844C178.939 409.553 167.515 384.62 167.515 352.046Z" fill="#2362C9"></path>
<line x1="420.271" y1="185.94" x2="481.076" y2="185.94" stroke="#FEBC32" stroke-width="10.2656" stroke-linecap="round"></line>
<path d="M538.757 202.06V106.956H598.383V119.308H553.106V148.285H595.272V160.591H553.106V189.708H598.94V202.06H538.757ZM613.627 106.956H631.041L661.318 180.885H662.433L692.71 106.956H710.124V202.06H696.471V133.24H695.589L667.541 201.921H656.21L628.162 133.193H627.28V202.06H613.627V106.956ZM741.412 106.956V202.06H727.063V106.956H741.412ZM810.256 131.939C809.761 127.543 807.718 124.138 804.127 121.723C800.536 119.278 796.016 118.055 790.567 118.055C786.666 118.055 783.292 118.674 780.444 119.912C777.595 121.12 775.382 122.791 773.803 124.927C772.255 127.033 771.481 129.432 771.481 132.125C771.481 134.385 772.008 136.336 773.06 137.976C774.144 139.617 775.552 140.995 777.286 142.109C779.051 143.193 780.939 144.106 782.951 144.849C784.964 145.561 786.898 146.149 788.756 146.614L798.043 149.028C801.077 149.771 804.189 150.778 807.377 152.047C810.566 153.316 813.523 154.988 816.247 157.062C818.971 159.136 821.169 161.706 822.841 164.771C824.544 167.836 825.395 171.504 825.395 175.776C825.395 181.163 824.002 185.946 821.216 190.126C818.46 194.305 814.451 197.602 809.188 200.017C803.956 202.431 797.626 203.639 790.196 203.639C783.075 203.639 776.914 202.509 771.713 200.249C766.512 197.989 762.441 194.785 759.5 190.636C756.559 186.457 754.934 181.504 754.624 175.776H769.02C769.299 179.213 770.413 182.076 772.364 184.367C774.345 186.627 776.868 188.315 779.933 189.429C783.029 190.513 786.419 191.054 790.103 191.054C794.158 191.054 797.765 190.42 800.923 189.15C804.111 187.85 806.619 186.055 808.445 183.764C810.272 181.442 811.185 178.733 811.185 175.637C811.185 172.82 810.38 170.514 808.77 168.718C807.192 166.922 805.04 165.436 802.316 164.26C799.622 163.084 796.573 162.046 793.168 161.149L781.93 158.084C774.314 156.01 768.277 152.96 763.819 148.936C759.392 144.911 757.179 139.586 757.179 132.961C757.179 127.481 758.665 122.698 761.636 118.612C764.608 114.525 768.633 111.352 773.71 109.092C778.787 106.801 784.515 105.656 790.892 105.656C797.331 105.656 803.012 106.786 807.935 109.046C812.888 111.306 816.789 114.417 819.637 118.38C822.485 122.311 823.971 126.831 824.095 131.939H810.256ZM890.49 131.939C889.994 127.543 887.951 124.138 884.36 121.723C880.769 119.278 876.249 118.055 870.8 118.055C866.899 118.055 863.525 118.674 860.677 119.912C857.829 121.12 855.615 122.791 854.036 124.927C852.488 127.033 851.714 129.432 851.714 132.125C851.714 134.385 852.241 136.336 853.293 137.976C854.377 139.617 855.785 140.995 857.519 142.109C859.284 143.193 861.172 144.106 863.184 144.849C865.197 145.561 867.132 146.149 868.989 146.614L878.277 149.028C881.311 149.771 884.422 150.778 887.611 152.047C890.799 153.316 893.756 154.988 896.48 157.062C899.204 159.136 901.402 161.706 903.074 164.771C904.777 167.836 905.628 171.504 905.628 175.776C905.628 181.163 904.235 185.946 901.449 190.126C898.694 194.305 894.685 197.602 889.422 200.017C884.19 202.431 877.859 203.639 870.429 203.639C863.308 203.639 857.148 202.509 851.947 200.249C846.746 197.989 842.675 194.785 839.734 190.636C836.793 186.457 835.167 181.504 834.858 175.776H849.253C849.532 179.213 850.646 182.076 852.597 184.367C854.578 186.627 857.101 188.315 860.166 189.429C863.262 190.513 866.652 191.054 870.336 191.054C874.391 191.054 877.998 190.42 881.156 189.15C884.344 187.85 886.852 186.055 888.679 183.764C890.505 181.442 891.418 178.733 891.418 175.637C891.418 172.82 890.614 170.514 889.004 168.718C887.425 166.922 885.273 165.436 882.549 164.26C879.856 163.084 876.806 162.046 873.401 161.149L862.163 158.084C854.547 156.01 848.51 152.96 844.052 148.936C839.625 144.911 837.412 139.586 837.412 132.961C837.412 127.481 838.898 122.698 841.87 118.612C844.842 114.525 848.866 111.352 853.943 109.092C859.021 106.801 864.748 105.656 871.125 105.656C877.565 105.656 883.245 106.786 888.168 109.046C893.121 111.306 897.022 114.417 899.87 118.38C902.718 122.311 904.204 126.831 904.328 131.939H890.49ZM926.12 202.06H910.888L945.113 106.956H961.691L995.915 202.06H980.684L953.796 124.231H953.053L926.12 202.06ZM928.674 164.817H978.083V176.891H928.674V164.817ZM939.447 97.5293L930.067 97.2043C930.067 92.0962 931.46 88.0097 934.246 84.9448C937.033 81.8799 940.453 80.332 944.509 80.301C946.428 80.301 948.1 80.6261 949.524 81.2762C950.948 81.8954 952.279 82.6229 953.518 83.4588C954.756 84.2947 956.01 85.0377 957.279 85.6878C958.549 86.307 959.957 86.6165 961.505 86.6165C963.27 86.5856 964.709 85.9045 965.824 84.5733C966.969 83.2111 967.542 81.5239 967.542 79.5116L976.737 80.1153C976.706 85.2853 975.297 89.3563 972.511 92.3283C969.755 95.2694 966.35 96.7399 962.294 96.7399C960.096 96.7399 958.27 96.4303 956.815 95.8112C955.36 95.161 954.075 94.4335 952.961 93.6286C951.846 92.7927 950.701 92.0652 949.524 91.446C948.348 90.7959 946.939 90.4708 945.298 90.4708C943.596 90.4708 942.187 91.1364 941.073 92.4677C939.989 93.7989 939.447 95.4861 939.447 97.5293ZM1083.87 154.508C1083.87 164.662 1082.01 173.393 1078.3 180.699C1074.58 187.974 1069.49 193.577 1063.02 197.509C1056.58 201.41 1049.26 203.36 1041.05 203.36C1032.82 203.36 1025.47 201.41 1019 197.509C1012.56 193.577 1007.48 187.958 1003.76 180.652C1000.05 173.346 998.192 164.631 998.192 154.508C998.192 144.354 1000.05 135.639 1003.76 128.364C1007.48 121.058 1012.56 115.454 1019 111.553C1025.47 107.622 1032.82 105.656 1041.05 105.656C1049.26 105.656 1056.58 107.622 1063.02 111.553C1069.49 115.454 1074.58 121.058 1078.3 128.364C1082.01 135.639 1083.87 144.354 1083.87 154.508ZM1069.66 154.508C1069.66 146.768 1068.4 140.252 1065.9 134.958C1063.42 129.633 1060.02 125.609 1055.68 122.884C1051.38 120.129 1046.5 118.751 1041.05 118.751C1035.57 118.751 1030.68 120.129 1026.38 122.884C1022.08 125.609 1018.67 129.633 1016.16 134.958C1013.69 140.252 1012.45 146.768 1012.45 154.508C1012.45 162.248 1013.69 168.78 1016.16 174.105C1018.67 179.399 1022.08 183.423 1026.38 186.178C1030.68 188.903 1035.57 190.265 1041.05 190.265C1046.5 190.265 1051.38 188.903 1055.68 186.178C1060.02 183.423 1063.42 179.399 1065.9 174.105C1068.4 168.78 1069.66 162.248 1069.66 154.508Z" fill="#2362C9"></path>
<g filter="url(#filter0_dddd_70_344)">
<path d="M612.092 449.884C595.825 449.884 580.048 447.728 564.761 443.417C549.671 438.909 537.52 433.127 528.308 426.072L544.477 390.207C553.296 396.674 563.782 401.868 575.933 405.788C588.084 409.707 600.235 411.667 612.386 411.667C625.909 411.667 635.904 409.707 642.372 405.788C648.839 401.672 652.073 396.282 652.073 389.619C652.073 384.719 650.113 380.701 646.193 377.566C642.47 374.234 637.57 371.588 631.494 369.628C625.615 367.668 617.579 365.513 607.388 363.161C591.709 359.437 578.872 355.713 568.877 351.99C558.882 348.266 550.259 342.288 543.007 334.057C535.952 325.826 532.424 314.85 532.424 301.132C532.424 289.176 535.658 278.397 542.125 268.794C548.593 258.995 558.294 251.253 571.229 245.57C584.36 239.886 600.333 237.044 619.147 237.044C632.278 237.044 645.115 238.612 657.658 241.748C670.201 244.884 681.177 249.391 690.584 255.271L675.885 291.43C656.874 280.651 637.864 275.262 618.853 275.262C605.526 275.262 595.629 277.417 589.162 281.729C582.89 286.041 579.754 291.724 579.754 298.78C579.754 305.835 583.38 311.127 590.631 314.655C598.079 317.986 609.348 321.318 624.439 324.65C640.118 328.373 652.955 332.097 662.95 335.821C672.945 339.545 681.471 345.424 688.526 353.46C695.777 361.495 699.403 372.372 699.403 386.091C699.403 397.85 696.071 408.629 689.408 418.429C682.94 428.032 673.141 435.675 660.01 441.359C646.879 447.042 630.906 449.884 612.092 449.884Z" fill="url(#paint1_linear_70_344)"></path>
<path d="M903.04 240.572V446.356H863.941L761.343 321.416V446.356H714.306V240.572H753.699L856.004 365.513V240.572H903.04Z" fill="url(#paint2_linear_70_344)"></path>
<path d="M1093.42 408.139V446.356H934.089V240.572H1089.6V278.789H981.419V323.474H1076.96V360.515H981.419V408.139H1093.42Z" fill="url(#paint3_linear_70_344)"></path>
<path d="M1113.68 240.572H1161.3V407.551H1264.49V446.356H1113.68V240.572Z" fill="url(#paint4_linear_70_344)"></path>
<path d="M1329.85 240.566V446.35H1282.23V278.783H1241.07V240.566H1329.85Z" fill="#FEBE31"></path>
<path d="M1329.85 240.566V446.35H1282.23V278.783H1241.07V240.566H1329.85Z" fill="url(#paint5_linear_70_344)"></path>
<path d="M1427.33 240.566V446.35H1379.71V278.783H1338.55V240.566H1427.33Z" fill="#FEBE31"></path>
<path d="M1427.33 240.566V446.35H1379.71V278.783H1338.55V240.566H1427.33Z" fill="url(#paint6_linear_70_344)"></path>
</g>
<rect x="1130.02" y="63.1479" width="222.126" height="166.594" fill="url(#pattern0_70_344)"></rect>
<path d="M32.2572 312.147L38.0919 270.713H13.2943L56.9381 205.792H59.6337L53.9157 252.66H83.0894L34.9528 312.147H32.2572Z" fill="#FEBE31"></path>
<path d="M32.2572 312.147L38.0919 270.713H13.2943L56.9381 205.792H59.6337L53.9157 252.66H83.0894L34.9528 312.147H32.2572Z" fill="url(#paint7_linear_70_344)"></path>
<path d="M32.2572 312.147L38.0919 270.713H13.2943L56.9381 205.792H59.6337L53.9157 252.66H83.0894L34.9528 312.147H32.2572Z" fill="url(#paint8_linear_70_344)"></path>
<path d="M43.745 348.975C45.9348 348.975 47.8679 350.4 48.559 352.478C75.685 434.039 144.929 496.362 230.5 513.658C232.868 514.137 234.599 516.203 234.599 518.618C234.599 521.731 231.781 524.091 228.729 523.477C139.469 505.517 67.2436 440.503 39.0285 355.421C37.9691 352.226 40.3794 348.975 43.745 348.975Z" fill="#1563E5"></path>
<path d="M43.745 348.975C45.9348 348.975 47.8679 350.4 48.559 352.478C75.685 434.039 144.929 496.362 230.5 513.658C232.868 514.137 234.599 516.203 234.599 518.618C234.599 521.731 231.781 524.091 228.729 523.477C139.469 505.517 67.2436 440.503 39.0285 355.421C37.9691 352.226 40.3794 348.975 43.745 348.975Z" fill="url(#paint9_linear_70_344)"></path>
<path d="M1371.26 23.2861C1509.26 25.0343 1620.59 137.444 1620.59 275.857L1620.57 279.122C1619.15 390.976 1545.03 485.306 1443.29 517.033C1440.11 518.024 1436.92 515.62 1436.92 512.292C1436.92 510.069 1438.39 508.115 1440.51 507.452C1539.09 476.619 1610.62 384.593 1610.62 275.857C1610.62 141.861 1501.99 33.2357 1368 33.2357H278.827C175.878 33.2359 87.9093 97.3577 52.6699 187.84C51.9083 189.796 50.034 191.105 47.9354 191.105C44.4618 191.105 42.0393 187.663 43.2971 184.425C79.9325 90.117 171.571 23.2651 278.827 23.265H1368L1371.26 23.2861Z" fill="#1563E5"></path>
<path d="M1371.26 23.2861C1509.26 25.0343 1620.59 137.444 1620.59 275.857L1620.57 279.122C1619.15 390.976 1545.03 485.306 1443.29 517.033C1440.11 518.024 1436.92 515.62 1436.92 512.292C1436.92 510.069 1438.39 508.115 1440.51 507.452C1539.09 476.619 1610.62 384.593 1610.62 275.857C1610.62 141.861 1501.99 33.2357 1368 33.2357H278.827C175.878 33.2359 87.9093 97.3577 52.6699 187.84C51.9083 189.796 50.034 191.105 47.9354 191.105C44.4618 191.105 42.0393 187.663 43.2971 184.425C79.9325 90.117 171.571 23.2651 278.827 23.265H1368L1371.26 23.2861Z" fill="url(#paint10_linear_70_344)"></path>
<path d="M1401.42 521.895C1401.42 524.389 1399.58 526.502 1397.1 526.786C1388.61 527.761 1379.99 528.318 1371.26 528.428L1368 528.449H278.826L275.561 528.428C275.344 528.426 275.126 528.422 274.909 528.419C272.224 528.376 270.096 526.166 270.096 523.48C270.096 520.66 272.435 518.408 275.254 518.451C276.443 518.469 277.634 518.479 278.826 518.479H1368C1377.39 518.479 1386.65 517.943 1395.77 516.904C1398.76 516.563 1401.42 518.88 1401.42 521.895Z" fill="#FEBD32"></path>
<path d="M1401.42 521.895C1401.42 524.389 1399.58 526.502 1397.1 526.786C1388.61 527.761 1379.99 528.318 1371.26 528.428L1368 528.449H278.826L275.561 528.428C275.344 528.426 275.126 528.422 274.909 528.419C272.224 528.376 270.096 526.166 270.096 523.48C270.096 520.66 272.435 518.408 275.254 518.451C276.443 518.469 277.634 518.479 278.826 518.479H1368C1377.39 518.479 1386.65 517.943 1395.77 516.904C1398.76 516.563 1401.42 518.88 1401.42 521.895Z" fill="url(#paint11_linear_70_344)"></path>
<defs>
<filter id="filter0_dddd_70_344" x="501.335" y="227.362" width="1004.15" height="396.117" filterUnits="userSpaceOnUse" color-interpolation-filters="sRGB">
<feFlood flood-opacity="0" result="BackgroundImageFix"></feFlood>
<feColorMatrix in="SourceAlpha" type="matrix" values="0 0 0 0 0 0 0 0 0 0 0 0 0 0 0 0 0 0 127 0" result="hardAlpha"></feColorMatrix>
<feOffset dx="2.07484" dy="7.60775"></feOffset>
<feGaussianBlur stdDeviation="8.64517"></feGaussianBlur>
<feColorMatrix type="matrix" values="0 0 0 0 0.137255 0 0 0 0 0.345098 0 0 0 0 0.686275 0 0 0 0.1 0"></feColorMatrix>
<feBlend mode="normal" in2="BackgroundImageFix" result="effect1_dropShadow_70_344"></feBlend>
<feColorMatrix in="SourceAlpha" type="matrix" values="0 0 0 0 0 0 0 0 0 0 0 0 0 0 0 0 0 0 127 0" result="hardAlpha"></feColorMatrix>
<feOffset dx="6.91614" dy="31.1226"></feOffset>
<feGaussianBlur stdDeviation="15.9071"></feGaussianBlur>
<feColorMatrix type="matrix" values="0 0 0 0 0.137255 0 0 0 0 0.345098 0 0 0 0 0.686275 0 0 0 0.09 0"></feColorMatrix>
<feBlend mode="normal" in2="effect1_dropShadow_70_344" result="effect2_dropShadow_70_344"></feBlend>
<feColorMatrix in="SourceAlpha" type="matrix" values="0 0 0 0 0 0 0 0 0 0 0 0 0 0 0 0 0 0 127 0" result="hardAlpha"></feColorMatrix>
<feOffset dx="15.9071" dy="69.1614"></feOffset>
<feGaussianBlur stdDeviation="21.44"></feGaussianBlur>
<feColorMatrix type="matrix" values="0 0 0 0 0.137255 0 0 0 0 0.345098 0 0 0 0 0.686275 0 0 0 0.05 0"></feColorMatrix>
<feBlend mode="normal" in2="effect2_dropShadow_70_344" result="effect3_dropShadow_70_344"></feBlend>
<feColorMatrix in="SourceAlpha" type="matrix" values="0 0 0 0 0 0 0 0 0 0 0 0 0 0 0 0 0 0 127 0" result="hardAlpha"></feColorMatrix>
<feOffset dx="27.6646" dy="123.107"></feOffset>
<feGaussianBlur stdDeviation="25.2439"></feGaussianBlur>
<feColorMatrix type="matrix" values="0 0 0 0 0.137255 0 0 0 0 0.345098 0 0 0 0 0.686275 0 0 0 0.01 0"></feColorMatrix>
<feBlend mode="normal" in2="effect3_dropShadow_70_344" result="effect4_dropShadow_70_344"></feBlend>
<feBlend mode="normal" in="SourceGraphic" in2="effect4_dropShadow_70_344" result="shape"></feBlend>
</filter>
<pattern id="pattern0_70_344" patternContentUnits="objectBoundingBox" width="1" height="1">
<use xlink:href="#image0_70_344" transform="scale(0.000690608 0.00092081)"></use>
</pattern>
<linearGradient id="paint0_linear_70_344" x1="527.421" y1="-135.787" x2="597.531" y2="727.675" gradientUnits="userSpaceOnUse">
<stop stop-color="white"></stop>
<stop offset="1" stop-color="#EBF3FF"></stop>
</linearGradient>
<linearGradient id="paint1_linear_70_344" x1="896.399" y1="298.723" x2="896.399" y2="832.97" gradientUnits="userSpaceOnUse">
<stop stop-color="#2C72E4"></stop>
<stop offset="1" stop-color="#0B3579"></stop>
</linearGradient>
<linearGradient id="paint2_linear_70_344" x1="896.399" y1="298.723" x2="896.399" y2="832.97" gradientUnits="userSpaceOnUse">
<stop stop-color="#2C72E4"></stop>
<stop offset="1" stop-color="#0B3579"></stop>
</linearGradient>
<linearGradient id="paint3_linear_70_344" x1="896.399" y1="298.723" x2="896.399" y2="832.97" gradientUnits="userSpaceOnUse">
<stop stop-color="#2C72E4"></stop>
<stop offset="1" stop-color="#0B3579"></stop>
</linearGradient>
<linearGradient id="paint4_linear_70_344" x1="896.399" y1="298.723" x2="896.399" y2="832.97" gradientUnits="userSpaceOnUse">
<stop stop-color="#2C72E4"></stop>
<stop offset="1" stop-color="#0B3579"></stop>
</linearGradient>
<linearGradient id="paint5_linear_70_344" x1="1336.97" y1="240.16" x2="1358.34" y2="444.236" gradientUnits="userSpaceOnUse">
<stop stop-color="#FEBE31"></stop>
<stop offset="1" stop-color="#FFAC38"></stop>
</linearGradient>
<linearGradient id="paint6_linear_70_344" x1="1336.97" y1="240.16" x2="1358.34" y2="444.236" gradientUnits="userSpaceOnUse">
<stop stop-color="#FEBE31"></stop>
<stop offset="1" stop-color="#FFAC38"></stop>
</linearGradient>
<linearGradient id="paint7_linear_70_344" x1="49.2279" y1="205.582" x2="64.3197" y2="310.031" gradientUnits="userSpaceOnUse">
<stop stop-color="#FFAC38"></stop>
<stop offset="1" stop-color="#FEBE31"></stop>
</linearGradient>
<linearGradient id="paint8_linear_70_344" x1="49.2279" y1="205.582" x2="64.3197" y2="310.031" gradientUnits="userSpaceOnUse">
<stop stop-color="#FFAC38"></stop>
<stop offset="1" stop-color="#FEBE31"></stop>
</linearGradient>
<linearGradient id="paint9_linear_70_344" x1="829.683" y1="23.265" x2="829.683" y2="523.575" gradientUnits="userSpaceOnUse">
<stop stop-color="#1667EF"></stop>
<stop offset="1" stop-color="#0C4198"></stop>
</linearGradient>
<linearGradient id="paint10_linear_70_344" x1="829.683" y1="23.265" x2="829.683" y2="523.575" gradientUnits="userSpaceOnUse">
<stop stop-color="#1667EF"></stop>
<stop offset="1" stop-color="#0C4198"></stop>
</linearGradient>
<linearGradient id="paint11_linear_70_344" x1="852.554" y1="516.848" x2="852.565" y2="528.457" gradientUnits="userSpaceOnUse">
<stop stop-color="#FFAC38"></stop>
<stop offset="1" stop-color="#FEBE31"></stop>
</linearGradient>
<image id="image0_70_344" width="1448" height="1086" preserveAspectRatio="none"></image>
</defs>
</svg>