<svg width="891" height="891" viewBox="0 0 891 891" fill="none" xmlns="http://www.w3.org/2000/svg" xmlns:xlink="http://www.w3.org/1999/xlink">
<circle cx="445.399" cy="445.399" r="445.399" fill="url(#paint0_linear_70_311)"></circle>
<path d="M575.782 159.423V137.577C575.782 134.785 575.116 132.637 573.785 131.133C572.496 129.587 570.606 128.813 568.114 128.813C565.407 128.813 563.345 129.393 561.927 130.553C560.51 131.713 559.801 133.367 559.801 135.515V136.353H546.075V134.935C545.946 130.338 547.965 126.665 552.132 123.916C556.343 121.123 561.927 119.727 568.887 119.727C576.147 119.727 581.582 121.295 585.191 124.431C588.842 127.524 590.668 132.078 590.668 138.093V158.456C590.668 160.432 590.819 162.323 591.119 164.127C591.42 165.889 591.893 167.65 592.537 169.411H578.36C577.501 168.208 576.856 166.662 576.427 164.772C575.997 162.838 575.782 161.055 575.782 159.423ZM576.362 140.284V147.823H568.565C565.257 147.781 562.722 148.361 560.961 149.563C559.242 150.766 558.383 152.463 558.383 154.654C558.383 156.802 559.028 158.456 560.316 159.616C561.648 160.733 563.538 161.292 565.987 161.292C568.092 161.292 570.24 160.54 572.431 159.036C574.622 157.49 575.739 156.008 575.782 154.59L576.684 162.001C575.439 163.891 573.355 165.738 570.434 167.543C567.555 169.347 563.904 170.249 559.479 170.249C554.452 170.249 550.543 169.003 547.75 166.511C545.001 163.977 543.626 160.347 543.626 155.621C543.626 150.809 545.495 147.05 549.232 144.344C553.013 141.637 558.233 140.284 564.892 140.284H576.362Z" fill="#2362C9"></path>
<mask id="path-3-outside-1_70_311" maskUnits="userSpaceOnUse" x="318.46" y="118.461" width="218" height="301" fill="black">
<rect fill="white" x="318.46" y="118.461" width="218" height="301"></rect>
<path d="M319.818 330.291V317.514L390.601 317.92V328.263C390.601 342.596 393.711 353.142 399.931 359.903C406.15 366.663 415.074 370.044 426.703 370.044C438.196 370.044 447.187 366.19 453.677 358.483C460.167 350.641 463.413 336.511 463.413 316.094C463.413 296.218 460.235 282.967 453.88 276.342C447.66 269.717 439.548 266.404 429.542 266.404C421.294 266.404 413.993 268.229 407.638 271.88C401.418 275.396 396.956 279.993 394.252 285.672L326.511 275.734L342.128 119.158H521.013V175.542L394.657 173.919L388.979 237.807C396.415 232.669 405.407 228.477 415.953 225.232C426.635 221.987 437.587 220.364 448.81 220.364C472.337 220.364 492.551 227.801 509.452 242.674C526.489 257.548 535.007 281.074 535.007 313.255C535.007 346.517 525.61 372.41 506.816 390.934C488.021 409.323 461.722 418.517 427.919 418.517C396.01 418.517 369.981 410.945 349.835 395.802C329.823 380.658 319.818 358.821 319.818 330.291Z"></path>
</mask>
<path d="M319.818 330.291V317.514L390.601 317.92V328.263C390.601 342.596 393.711 353.142 399.931 359.903C406.15 366.663 415.074 370.044 426.703 370.044C438.196 370.044 447.187 366.19 453.677 358.483C460.167 350.641 463.413 336.511 463.413 316.094C463.413 296.218 460.235 282.967 453.88 276.342C447.66 269.717 439.548 266.404 429.542 266.404C421.294 266.404 413.993 268.229 407.638 271.88C401.418 275.396 396.956 279.993 394.252 285.672L326.511 275.734L342.128 119.158H521.013V175.542L394.657 173.919L388.979 237.807C396.415 232.669 405.407 228.477 415.953 225.232C426.635 221.987 437.587 220.364 448.81 220.364C472.337 220.364 492.551 227.801 509.452 242.674C526.489 257.548 535.007 281.074 535.007 313.255C535.007 346.517 525.61 372.41 506.816 390.934C488.021 409.323 461.722 418.517 427.919 418.517C396.01 418.517 369.981 410.945 349.835 395.802C329.823 380.658 319.818 358.821 319.818 330.291Z" fill="#2362C9"></path>
<path d="M319.818 317.514L319.822 316.822L319.126 316.818V317.514H319.818ZM390.601 317.92H391.293V317.232L390.605 317.228L390.601 317.92ZM453.677 358.483L454.206 358.929L454.21 358.924L453.677 358.483ZM453.88 276.342L453.376 276.815L453.381 276.821L453.88 276.342ZM407.638 271.88L407.978 272.482L407.982 272.48L407.638 271.88ZM394.252 285.672L394.151 286.356L394.657 286.43L394.876 285.969L394.252 285.672ZM326.511 275.734L325.823 275.665L325.757 276.322L326.41 276.418L326.511 275.734ZM342.128 119.158V118.467H341.502L341.439 119.09L342.128 119.158ZM521.013 119.158H521.704V118.467H521.013V119.158ZM521.013 175.542L521.004 176.233L521.704 176.242V175.542H521.013ZM394.657 173.919L394.666 173.228L394.025 173.219L393.969 173.858L394.657 173.919ZM388.979 237.807L388.29 237.745L388.159 239.213L389.372 238.376L388.979 237.807ZM415.953 225.232L415.752 224.57L415.75 224.571L415.953 225.232ZM509.452 242.674L508.995 243.193L508.997 243.195L509.452 242.674ZM506.816 390.934L507.299 391.428L507.301 391.426L506.816 390.934ZM349.835 395.802L349.417 396.353L349.419 396.354L349.835 395.802ZM319.818 330.291H320.509V317.514H319.818H319.126V330.291H319.818ZM319.818 317.514L319.814 318.206L390.597 318.611L390.601 317.92L390.605 317.228L319.822 316.822L319.818 317.514ZM390.601 317.92H389.909V328.263H390.601H391.293V317.92H390.601ZM390.601 328.263H389.909C389.909 342.676 393.034 353.428 399.422 360.371L399.931 359.903L400.44 359.435C394.388 352.857 391.293 342.516 391.293 328.263H390.601ZM399.931 359.903L399.422 360.371C405.805 367.31 414.936 370.735 426.703 370.735V370.044V369.352C415.213 369.352 406.495 366.017 400.44 359.435L399.931 359.903ZM426.703 370.044V370.735C438.368 370.735 447.565 366.815 454.206 358.929L453.677 358.483L453.148 358.038C446.809 365.566 438.024 369.352 426.703 369.352V370.044ZM453.677 358.483L454.21 358.924C460.865 350.882 464.104 336.535 464.104 316.094H463.413H462.721C462.721 336.487 459.47 350.399 453.145 358.042L453.677 358.483ZM463.413 316.094H464.104C464.104 306.124 463.308 297.784 461.702 291.088C460.098 284.397 457.673 279.297 454.379 275.863L453.88 276.342L453.381 276.821C456.442 280.012 458.784 284.851 460.357 291.41C461.929 297.965 462.721 306.188 462.721 316.094H463.413ZM453.88 276.342L454.384 275.869C448.02 269.089 439.717 265.712 429.542 265.712V266.404V267.096C439.378 267.096 447.301 270.344 453.376 276.815L453.88 276.342ZM429.542 266.404V265.712C421.189 265.712 413.766 267.562 407.293 271.28L407.638 271.88L407.982 272.48C414.22 268.896 421.4 267.096 429.542 267.096V266.404ZM407.638 271.88L407.297 271.278C400.971 274.854 396.401 279.55 393.627 285.374L394.252 285.672L394.876 285.969C397.511 280.435 401.865 275.938 407.978 272.482L407.638 271.88ZM394.252 285.672L394.352 284.987L326.611 275.049L326.511 275.734L326.41 276.418L394.151 286.356L394.252 285.672ZM326.511 275.734L327.199 275.802L342.816 119.227L342.128 119.158L341.439 119.09L325.823 275.665L326.511 275.734ZM342.128 119.158V119.85H521.013V119.158V118.467H342.128V119.158ZM521.013 119.158H520.321V175.542H521.013H521.704V119.158H521.013ZM521.013 175.542L521.022 174.85L394.666 173.228L394.657 173.919L394.649 174.611L521.004 176.233L521.013 175.542ZM394.657 173.919L393.969 173.858L388.29 237.745L388.979 237.807L389.667 237.868L395.346 173.98L394.657 173.919ZM388.979 237.807L389.372 238.376C396.739 233.286 405.663 229.122 416.157 225.893L415.953 225.232L415.75 224.571C405.15 227.832 396.091 232.052 388.585 237.238L388.979 237.807ZM415.953 225.232L416.154 225.894C426.771 222.669 437.655 221.056 448.81 221.056V220.364V219.673C437.519 219.673 426.499 221.305 415.752 224.57L415.953 225.232ZM448.81 220.364V221.056C472.177 221.056 492.226 228.437 508.995 243.193L509.452 242.674L509.909 242.155C492.875 227.165 472.496 219.673 448.81 219.673V220.364ZM509.452 242.674L508.997 243.195C525.828 257.889 534.316 281.187 534.316 313.255H535.007H535.699C535.699 280.962 527.149 257.206 509.907 242.153L509.452 242.674ZM535.007 313.255H534.316C534.316 346.383 524.96 372.079 506.33 390.441L506.816 390.934L507.301 391.426C526.26 372.741 535.699 346.651 535.699 313.255H535.007ZM506.816 390.934L506.332 390.44C487.701 408.669 461.595 417.826 427.919 417.826V418.517V419.209C461.849 419.209 488.342 409.977 507.299 391.428L506.816 390.934ZM427.919 418.517V417.826C396.119 417.826 370.248 410.281 350.25 395.249L349.835 395.802L349.419 396.354C369.714 411.61 395.9 419.209 427.919 419.209V418.517ZM349.835 395.802L350.252 395.25C330.439 380.256 320.509 358.638 320.509 330.291H319.818H319.126C319.126 359.004 329.208 381.059 349.417 396.353L349.835 395.802Z" fill="#CADDFF" mask="url(#path-3-outside-1_70_311)"></path>
<line x1="541.188" y1="185.007" x2="594.442" y2="185.007" stroke="#FEBE31" stroke-width="8.99098" stroke-linecap="round"></line>
<rect x="352.723" y="672.94" width="189.502" height="141.781" fill="url(#pattern0_70_311)"></rect>
<line x1="529.776" y1="756.625" x2="634.901" y2="756.625" stroke="#1266EF" stroke-width="4.14968" stroke-linecap="round"></line>
<line x1="255.897" y1="756.625" x2="361.022" y2="756.625" stroke="#1266EF" stroke-width="4.14968" stroke-linecap="round"></line>
<path d="M300.803 499.25V448.587H332.566V455.167H308.447V470.603H330.909V477.159H308.447V492.669H332.863V499.25H300.803ZM340.687 448.587H349.963L366.092 487.969H366.686L382.815 448.587H392.092V499.25H384.819V462.588H384.349L369.407 499.175H363.371L348.43 462.563H347.96V499.25H340.687V448.587ZM408.759 448.587V499.25H401.115V448.587H408.759ZM445.433 461.896C445.17 459.554 444.081 457.74 442.168 456.453C440.255 455.15 437.847 454.499 434.945 454.499C432.867 454.499 431.069 454.829 429.552 455.488C428.035 456.132 426.855 457.022 426.014 458.16C425.19 459.282 424.777 460.56 424.777 461.995C424.777 463.198 425.058 464.237 425.618 465.111C426.196 465.986 426.946 466.719 427.87 467.313C428.81 467.89 429.816 468.377 430.888 468.773C431.96 469.152 432.99 469.465 433.98 469.713L438.927 470.999C440.544 471.395 442.201 471.931 443.9 472.607C445.598 473.283 447.173 474.174 448.625 475.279C450.076 476.384 451.247 477.752 452.137 479.385C453.044 481.018 453.498 482.972 453.498 485.248C453.498 488.118 452.756 490.666 451.272 492.892C449.804 495.118 447.668 496.875 444.864 498.161C442.077 499.447 438.705 500.091 434.747 500.091C430.954 500.091 427.672 499.489 424.901 498.285C422.13 497.081 419.962 495.374 418.395 493.164C416.828 490.938 415.962 488.299 415.798 485.248H423.466C423.615 487.079 424.208 488.604 425.247 489.824C426.303 491.028 427.647 491.927 429.28 492.521C430.929 493.098 432.735 493.387 434.697 493.387C436.858 493.387 438.779 493.049 440.461 492.372C442.16 491.68 443.496 490.723 444.469 489.503C445.442 488.266 445.928 486.823 445.928 485.174C445.928 483.673 445.499 482.444 444.642 481.488C443.801 480.531 442.655 479.74 441.203 479.113C439.768 478.486 438.144 477.934 436.33 477.456L430.343 475.823C426.286 474.718 423.07 473.094 420.696 470.95C418.337 468.806 417.158 465.969 417.158 462.44C417.158 459.521 417.95 456.973 419.533 454.796C421.116 452.619 423.26 450.929 425.965 449.725C428.669 448.504 431.72 447.894 435.118 447.894C438.548 447.894 441.574 448.496 444.197 449.7C446.835 450.904 448.913 452.561 450.43 454.672C451.948 456.767 452.739 459.174 452.805 461.896H445.433ZM488.175 461.896C487.911 459.554 486.822 457.74 484.909 456.453C482.996 455.15 480.588 454.499 477.686 454.499C475.608 454.499 473.81 454.829 472.293 455.488C470.776 456.132 469.596 457.022 468.755 458.16C467.931 459.282 467.519 460.56 467.519 461.995C467.519 463.198 467.799 464.237 468.36 465.111C468.937 465.986 469.687 466.719 470.611 467.313C471.551 467.89 472.557 468.377 473.629 468.773C474.701 469.152 475.731 469.465 476.721 469.713L481.669 470.999C483.285 471.395 484.942 471.931 486.641 472.607C488.339 473.283 489.914 474.174 491.366 475.279C492.817 476.384 493.988 477.752 494.878 479.385C495.786 481.018 496.239 482.972 496.239 485.248C496.239 488.118 495.497 490.666 494.013 492.892C492.545 495.118 490.409 496.875 487.606 498.161C484.818 499.447 481.446 500.091 477.488 500.091C473.695 500.091 470.413 499.489 467.642 498.285C464.872 497.081 462.703 495.374 461.136 493.164C459.569 490.938 458.704 488.299 458.539 485.248H466.207C466.356 487.079 466.95 488.604 467.989 489.824C469.044 491.028 470.388 491.927 472.021 492.521C473.67 493.098 475.476 493.387 477.438 493.387C479.599 493.387 481.52 493.049 483.202 492.372C484.901 491.68 486.237 490.723 487.21 489.503C488.183 488.266 488.669 486.823 488.669 485.174C488.669 483.673 488.241 482.444 487.383 481.488C486.542 480.531 485.396 479.74 483.944 479.113C482.51 478.486 480.885 477.934 479.071 477.456L473.085 475.823C469.028 474.718 465.812 473.094 463.437 470.95C461.078 468.806 459.899 465.969 459.899 462.44C459.899 459.521 460.691 456.973 462.274 454.796C463.857 452.619 466.001 450.929 468.706 449.725C471.411 448.504 474.462 447.894 477.859 447.894C481.289 447.894 484.315 448.496 486.938 449.7C489.576 450.904 491.654 452.561 493.172 454.672C494.689 456.767 495.48 459.174 495.546 461.896H488.175ZM507.155 499.25H499.041L517.273 448.587H526.104L544.336 499.25H536.222L521.899 457.789H521.503L507.155 499.25ZM508.516 479.41H534.837V485.842H508.516V479.41ZM514.255 443.565L509.258 443.392C509.258 440.671 510 438.494 511.484 436.861C512.968 435.228 514.791 434.404 516.951 434.387C517.974 434.387 518.864 434.56 519.623 434.907C520.382 435.237 521.091 435.624 521.75 436.069C522.41 436.515 523.078 436.91 523.754 437.257C524.43 437.587 525.181 437.752 526.005 437.752C526.945 437.735 527.712 437.372 528.306 436.663C528.916 435.937 529.221 435.039 529.221 433.967L534.119 434.288C534.103 437.042 533.352 439.211 531.868 440.794C530.4 442.361 528.586 443.144 526.426 443.144C525.255 443.144 524.282 442.979 523.507 442.65C522.732 442.303 522.047 441.916 521.453 441.487C520.86 441.042 520.25 440.654 519.623 440.324C518.996 439.978 518.246 439.805 517.372 439.805C516.465 439.805 515.714 440.159 515.121 440.868C514.543 441.578 514.255 442.476 514.255 443.565ZM591.19 473.918C591.19 479.327 590.2 483.978 588.221 487.87C586.242 491.746 583.529 494.731 580.082 496.825C576.652 498.903 572.752 499.942 568.381 499.942C563.995 499.942 560.078 498.903 556.631 496.825C553.201 494.731 550.496 491.738 548.517 487.845C546.538 483.953 545.549 479.311 545.549 473.918C545.549 468.509 546.538 463.866 548.517 459.991C550.496 456.099 553.201 453.114 556.631 451.036C560.078 448.941 563.995 447.894 568.381 447.894C572.752 447.894 576.652 448.941 580.082 451.036C583.529 453.114 586.242 456.099 588.221 459.991C590.2 463.866 591.19 468.509 591.19 473.918ZM583.62 473.918C583.62 469.795 582.952 466.324 581.616 463.504C580.297 460.667 578.483 458.523 576.174 457.072C573.881 455.604 571.284 454.87 568.381 454.87C565.462 454.87 562.857 455.604 560.564 457.072C558.272 458.523 556.458 460.667 555.122 463.504C553.803 466.324 553.143 469.795 553.143 473.918C553.143 478.041 553.803 481.521 555.122 484.357C556.458 487.178 558.272 489.321 560.564 490.789C562.857 492.241 565.462 492.966 568.381 492.966C571.284 492.966 573.881 492.241 576.174 490.789C578.483 489.321 580.297 487.178 581.616 484.357C582.952 481.521 583.62 478.041 583.62 473.918Z" fill="#2362C9"></path>
<g filter="url(#filter0_dddd_70_311)">
<path d="M246.365 656.991C237.699 656.991 229.295 655.842 221.151 653.545C213.112 651.144 206.639 648.064 201.732 644.306L210.346 625.2C215.044 628.645 220.629 631.412 227.102 633.5C233.575 635.588 240.048 636.632 246.521 636.632C253.725 636.632 259.05 635.588 262.495 633.5C265.941 631.307 267.663 628.436 267.663 624.886C267.663 622.276 266.619 620.136 264.531 618.466C262.547 616.691 259.937 615.281 256.701 614.237C253.569 613.193 249.288 612.045 243.859 610.792C235.507 608.808 228.668 606.825 223.344 604.841C218.019 602.857 213.426 599.673 209.563 595.288C205.804 590.903 203.925 585.057 203.925 577.748C203.925 571.38 205.648 565.638 209.093 560.522C212.538 555.302 217.706 551.178 224.597 548.15C231.592 545.122 240.101 543.608 250.123 543.608C257.118 543.608 263.957 544.444 270.639 546.114C277.32 547.785 283.167 550.186 288.178 553.318L280.348 572.58C270.221 566.838 260.094 563.967 249.967 563.967C242.867 563.967 237.595 565.116 234.15 567.412C230.809 569.709 229.138 572.737 229.138 576.495C229.138 580.254 231.07 583.073 234.933 584.952C238.9 586.727 244.903 588.502 252.942 590.277C261.295 592.26 268.133 594.244 273.458 596.228C278.782 598.211 283.324 601.344 287.082 605.624C290.945 609.905 292.877 615.699 292.877 623.007C292.877 629.271 291.102 635.014 287.552 640.234C284.107 645.35 278.887 649.421 271.892 652.449C264.896 655.477 256.388 656.991 246.365 656.991Z" fill="url(#paint1_linear_70_311)"></path>
<path d="M401.356 545.488V655.111H380.528L325.873 588.554V655.111H300.816V545.488H321.801L376.299 612.045V545.488H401.356Z" fill="url(#paint2_linear_70_311)"></path>
<path d="M502.776 634.753V655.111H417.896V545.488H500.741V565.846H443.11V589.65H494.007V609.383H443.11V634.753H502.776Z" fill="url(#paint3_linear_70_311)"></path>
<path d="M513.566 545.488H538.936V634.439H593.905V655.111H513.566V545.488Z" fill="url(#paint4_linear_70_311)"></path>
<path d="M628.723 545.482V655.106H603.353V565.841H581.428V545.482H628.723Z" fill="#FEBE31"></path>
<path d="M628.723 545.482V655.106H603.353V565.841H581.428V545.482H628.723Z" fill="url(#paint5_linear_70_311)"></path>
<path d="M680.654 545.482V655.106H655.284V565.841H633.359V545.482H680.654Z" fill="#FEBE31"></path>
<path d="M680.654 545.482V655.106H655.284V565.841H633.359V545.482H680.654Z" fill="url(#paint6_linear_70_311)"></path>
</g>
<path d="M131.047 695.395C134.478 693.414 138.836 694.258 141.344 697.325C214.396 786.709 325.511 843.769 449.954 843.769C569.023 843.769 675.89 791.529 748.889 708.721C751.435 705.833 755.662 705.097 758.996 707.022C763.296 709.505 764.313 715.273 761.033 719C685.113 805.251 573.89 859.676 449.954 859.676C320.431 859.676 204.793 800.235 128.825 707.145C125.763 703.393 126.852 697.817 131.047 695.395Z" fill="url(#paint7_linear_70_311)"></path>
<circle cx="775.299" cy="218.55" r="35.2723" fill="#F7FAFF"></circle>
<path d="M764.635 258.503L769.261 225.901H749.603L784.201 174.818H786.338L781.805 211.695H804.932L766.772 258.503H764.635Z" fill="#FEBE31"></path>
<path d="M764.635 258.503L769.261 225.901H749.603L784.201 174.818H786.338L781.805 211.695H804.932L766.772 258.503H764.635Z" fill="url(#paint8_linear_70_311)"></path>
<path d="M764.635 258.503L769.261 225.901H749.603L784.201 174.818H786.338L781.805 211.695H804.932L766.772 258.503H764.635Z" fill="url(#paint9_linear_70_311)"></path>
<path d="M799.771 249.01C803.625 245.993 809.266 247.121 811.561 251.444C842.276 309.309 859.676 375.322 859.676 445.399C859.676 531.705 833.283 611.845 788.13 678.193C785.821 681.585 781.282 682.575 777.728 680.524C773.673 678.182 772.52 672.863 775.151 668.99C818.46 605.242 843.769 528.276 843.769 445.399C843.769 378.128 827.094 314.751 797.653 259.177C795.819 255.716 796.687 251.425 799.771 249.01Z" fill="url(#paint10_linear_70_311)"></path>
<path d="M445.399 31.1226C570.74 31.1226 683.079 86.7869 759.046 174.742C761.977 178.136 761.421 183.275 757.891 186.039C754.502 188.693 749.624 188.165 746.808 184.91C673.761 100.462 565.82 47.0297 445.399 47.0297C225.386 47.0297 47.0297 225.386 47.0297 445.399C47.0297 523 69.2185 595.418 107.597 656.656C110.022 660.526 108.808 665.662 104.853 667.946C101.2 670.054 96.5289 668.946 94.2862 665.374C54.2664 601.631 31.1226 526.218 31.1226 445.399C31.1226 216.601 216.601 31.1226 445.399 31.1226Z" fill="url(#paint11_linear_70_311)"></path>
<defs>
<pattern id="pattern0_70_311" patternContentUnits="objectBoundingBox" width="1" height="1">
<use xlink:href="#image0_70_311" transform="matrix(0.000690608 0 0 0.000923056 0 -0.0012195)"></use>
</pattern>
<filter id="filter0_dddd_70_311" x="174.759" y="533.926" width="584.047" height="296.66" filterUnits="userSpaceOnUse" color-interpolation-filters="sRGB">
<feFlood flood-opacity="0" result="BackgroundImageFix"></feFlood>
<feColorMatrix in="SourceAlpha" type="matrix" values="0 0 0 0 0 0 0 0 0 0 0 0 0 0 0 0 0 0 127 0" result="hardAlpha"></feColorMatrix>
<feOffset dx="2.07484" dy="7.60775"></feOffset>
<feGaussianBlur stdDeviation="8.64517"></feGaussianBlur>
<feColorMatrix type="matrix" values="0 0 0 0 0.137255 0 0 0 0 0.345098 0 0 0 0 0.686275 0 0 0 0.1 0"></feColorMatrix>
<feBlend mode="normal" in2="BackgroundImageFix" result="effect1_dropShadow_70_311"></feBlend>
<feColorMatrix in="SourceAlpha" type="matrix" values="0 0 0 0 0 0 0 0 0 0 0 0 0 0 0 0 0 0 127 0" result="hardAlpha"></feColorMatrix>
<feOffset dx="6.91614" dy="31.1226"></feOffset>
<feGaussianBlur stdDeviation="15.9071"></feGaussianBlur>
<feColorMatrix type="matrix" values="0 0 0 0 0.137255 0 0 0 0 0.345098 0 0 0 0 0.686275 0 0 0 0.09 0"></feColorMatrix>
<feBlend mode="normal" in2="effect1_dropShadow_70_311" result="effect2_dropShadow_70_311"></feBlend>
<feColorMatrix in="SourceAlpha" type="matrix" values="0 0 0 0 0 0 0 0 0 0 0 0 0 0 0 0 0 0 127 0" result="hardAlpha"></feColorMatrix>
<feOffset dx="15.9071" dy="69.1614"></feOffset>
<feGaussianBlur stdDeviation="21.44"></feGaussianBlur>
<feColorMatrix type="matrix" values="0 0 0 0 0.137255 0 0 0 0 0.345098 0 0 0 0 0.686275 0 0 0 0.05 0"></feColorMatrix>
<feBlend mode="normal" in2="effect2_dropShadow_70_311" result="effect3_dropShadow_70_311"></feBlend>
<feColorMatrix in="SourceAlpha" type="matrix" values="0 0 0 0 0 0 0 0 0 0 0 0 0 0 0 0 0 0 127 0" result="hardAlpha"></feColorMatrix>
<feOffset dx="27.6646" dy="123.107"></feOffset>
<feGaussianBlur stdDeviation="25.2439"></feGaussianBlur>
<feColorMatrix type="matrix" values="0 0 0 0 0.137255 0 0 0 0 0.345098 0 0 0 0 0.686275 0 0 0 0.01 0"></feColorMatrix>
<feBlend mode="normal" in2="effect3_dropShadow_70_311" result="effect4_dropShadow_70_311"></feBlend>
<feBlend mode="normal" in="SourceGraphic" in2="effect4_dropShadow_70_311" result="shape"></feBlend>
</filter>
<linearGradient id="paint0_linear_70_311" x1="285.291" y1="-219.242" x2="606.545" y2="1106.24" gradientUnits="userSpaceOnUse">
<stop stop-color="white"></stop>
<stop offset="1" stop-color="#EBF3FF"></stop>
</linearGradient>
<linearGradient id="paint1_linear_70_311" x1="397.819" y1="576.465" x2="397.819" y2="861.065" gradientUnits="userSpaceOnUse">
<stop stop-color="#2C72E4"></stop>
<stop offset="1" stop-color="#0B3579"></stop>
</linearGradient>
<linearGradient id="paint2_linear_70_311" x1="397.819" y1="576.465" x2="397.819" y2="861.065" gradientUnits="userSpaceOnUse">
<stop stop-color="#2C72E4"></stop>
<stop offset="1" stop-color="#0B3579"></stop>
</linearGradient>
<linearGradient id="paint3_linear_70_311" x1="397.819" y1="576.465" x2="397.819" y2="861.065" gradientUnits="userSpaceOnUse">
<stop stop-color="#2C72E4"></stop>
<stop offset="1" stop-color="#0B3579"></stop>
</linearGradient>
<linearGradient id="paint4_linear_70_311" x1="397.819" y1="576.465" x2="397.819" y2="861.065" gradientUnits="userSpaceOnUse">
<stop stop-color="#2C72E4"></stop>
<stop offset="1" stop-color="#0B3579"></stop>
</linearGradient>
<linearGradient id="paint5_linear_70_311" x1="632.514" y1="545.266" x2="643.903" y2="653.98" gradientUnits="userSpaceOnUse">
<stop stop-color="#FEBE31"></stop>
<stop offset="1" stop-color="#FFAC38"></stop>
</linearGradient>
<linearGradient id="paint6_linear_70_311" x1="632.514" y1="545.266" x2="643.903" y2="653.98" gradientUnits="userSpaceOnUse">
<stop stop-color="#FEBE31"></stop>
<stop offset="1" stop-color="#FFAC38"></stop>
</linearGradient>
<linearGradient id="paint7_linear_70_311" x1="454.736" y1="691.614" x2="458.886" y2="859.676" gradientUnits="userSpaceOnUse">
<stop stop-color="#FFAC38"></stop>
<stop offset="1" stop-color="#FEBE31"></stop>
</linearGradient>
<linearGradient id="paint8_linear_70_311" x1="778.089" y1="174.652" x2="789.879" y2="256.863" gradientUnits="userSpaceOnUse">
<stop stop-color="#FFAC38"></stop>
<stop offset="1" stop-color="#FEBE31"></stop>
</linearGradient>
<linearGradient id="paint9_linear_70_311" x1="778.089" y1="174.652" x2="789.879" y2="256.863" gradientUnits="userSpaceOnUse">
<stop stop-color="#FFAC38"></stop>
<stop offset="1" stop-color="#FEBE31"></stop>
</linearGradient>
<linearGradient id="paint10_linear_70_311" x1="445.399" y1="31.1226" x2="445.399" y2="684.146" gradientUnits="userSpaceOnUse">
<stop stop-color="#1667EF"></stop>
<stop offset="1" stop-color="#0C4198"></stop>
</linearGradient>
<linearGradient id="paint11_linear_70_311" x1="445.399" y1="31.1226" x2="445.399" y2="684.146" gradientUnits="userSpaceOnUse">
<stop stop-color="#1667EF"></stop>
<stop offset="1" stop-color="#0C4198"></stop>
</linearGradient>
<image id="image0_70_311" width="1448" height="1086" preserveAspectRatio="none"></image>
</defs>
</svg>