<svg width="254" height="129" viewBox="0 0 254 129" fill="none" xmlns="http://www.w3.org/2000/svg">
<path d="M99.218 13.2498C99.0993 12.8372 98.9326 12.4727 98.7178 12.1562C98.5031 11.834 98.2402 11.5627 97.9294 11.3423C97.6242 11.1162 97.2738 10.9439 96.8782 10.8252C96.4882 10.7065 96.0558 10.6471 95.5811 10.6471C94.6937 10.6471 93.9138 10.8676 93.2412 11.3084C92.5743 11.7493 92.0543 12.3907 91.6813 13.2329C91.3083 14.0693 91.1218 15.0923 91.1218 16.3018C91.1218 17.5113 91.3054 18.5399 91.6728 19.3877C92.0402 20.2355 92.5601 20.8826 93.2327 21.3291C93.9053 21.77 94.6994 21.9904 95.615 21.9904C96.4458 21.9904 97.1551 21.8434 97.7429 21.5496C98.3363 21.25 98.7885 20.8289 99.0993 20.2864C99.4158 19.7438 99.5741 19.1023 99.5741 18.3619L100.32 18.4721H95.8439V15.7084H103.109V17.8956C103.109 19.4216 102.787 20.7329 102.143 21.8293C101.499 22.9201 100.611 23.7622 99.4808 24.3557C98.3505 24.9435 97.0562 25.2374 95.598 25.2374C93.9703 25.2374 92.5404 24.8785 91.3083 24.1607C90.0762 23.4373 89.1153 22.4115 88.4258 21.0833C87.7419 19.7494 87.4 18.1669 87.4 16.3357C87.4 14.9284 87.6035 13.6737 88.0104 12.5716C88.423 11.4638 88.9995 10.5256 89.7399 9.75698C90.4803 8.98833 91.3422 8.40337 92.3256 8.00208C93.309 7.6008 94.3744 7.40016 95.5217 7.40016C96.5051 7.40016 97.4207 7.54429 98.2685 7.83253C99.1163 8.11512 99.868 8.5164 100.524 9.03637C101.185 9.55634 101.725 10.1752 102.143 10.893C102.561 11.6051 102.83 12.3907 102.948 13.2498H99.218ZM111.733 25.2543C110.394 25.2543 109.241 24.983 108.274 24.4405C107.314 23.8922 106.573 23.1179 106.053 22.1176C105.533 21.1115 105.273 19.9218 105.273 18.5484C105.273 17.2089 105.533 16.0334 106.053 15.0217C106.573 14.01 107.305 13.2216 108.249 12.6564C109.198 12.0912 110.312 11.8086 111.589 11.8086C112.448 11.8086 113.248 11.9471 113.988 12.224C114.734 12.4953 115.384 12.9051 115.938 13.4533C116.498 14.0015 116.933 14.691 117.244 15.5219C117.555 16.347 117.71 17.3135 117.71 18.4213V19.4132H106.714V17.175H114.311C114.311 16.6551 114.198 16.1944 113.971 15.7931C113.745 15.3919 113.432 15.0782 113.03 14.8521C112.635 14.6204 112.174 14.5045 111.649 14.5045C111.1 14.5045 110.614 14.6317 110.19 14.886C109.772 15.1347 109.444 15.471 109.207 15.8949C108.97 16.3131 108.848 16.7794 108.842 17.2937V19.4216C108.842 20.0659 108.961 20.6226 109.198 21.0918C109.441 21.5609 109.783 21.9226 110.224 22.1769C110.665 22.4312 111.188 22.5584 111.793 22.5584C112.194 22.5584 112.561 22.5019 112.895 22.3888C113.228 22.2758 113.514 22.1063 113.751 21.8802C113.988 21.6541 114.169 21.3772 114.294 21.0494L117.634 21.2698C117.464 22.0723 117.117 22.7732 116.591 23.3723C116.071 23.9657 115.399 24.4292 114.573 24.7626C113.754 25.0904 112.807 25.2543 111.733 25.2543ZM130.902 15.6914L127.595 15.8949C127.539 15.6123 127.417 15.358 127.231 15.1319C127.044 14.9002 126.798 14.7165 126.493 14.5808C126.194 14.4395 125.835 14.3689 125.416 14.3689C124.857 14.3689 124.385 14.4876 124.001 14.725C123.616 14.9567 123.424 15.2675 123.424 15.6575C123.424 15.9684 123.548 16.2312 123.797 16.4459C124.046 16.6607 124.473 16.8331 125.077 16.9631L127.434 17.4378C128.7 17.6978 129.644 18.1161 130.266 18.6925C130.887 19.269 131.198 20.0264 131.198 20.9646C131.198 21.818 130.947 22.5669 130.444 23.2112C129.946 23.8555 129.262 24.3585 128.392 24.7202C127.527 25.0763 126.53 25.2543 125.399 25.2543C123.676 25.2543 122.302 24.8954 121.279 24.1777C120.262 23.4542 119.666 22.4708 119.49 21.2274L123.043 21.0409C123.15 21.5665 123.41 21.9678 123.823 22.2447C124.235 22.516 124.764 22.6517 125.408 22.6517C126.041 22.6517 126.55 22.5301 126.934 22.2871C127.324 22.0384 127.522 21.7191 127.527 21.3291C127.522 21.0013 127.383 20.7329 127.112 20.5237C126.841 20.309 126.422 20.1451 125.857 20.032L123.602 19.5827C122.331 19.3284 121.384 18.8875 120.762 18.2602C120.146 17.6328 119.838 16.8331 119.838 15.861C119.838 15.0245 120.064 14.3039 120.516 13.6991C120.974 13.0944 121.616 12.6281 122.441 12.3003C123.272 11.9725 124.244 11.8086 125.357 11.8086C127.002 11.8086 128.296 12.1562 129.24 12.8514C130.189 13.5465 130.743 14.4932 130.902 15.6914ZM140.399 11.9782V14.691H132.557V11.9782H140.399ZM134.337 8.85834H137.949V20.9985C137.949 21.332 138 21.5919 138.101 21.7784C138.203 21.9593 138.344 22.0865 138.525 22.1599C138.712 22.2334 138.926 22.2702 139.169 22.2702C139.339 22.2702 139.509 22.256 139.678 22.2278C139.848 22.1939 139.978 22.1684 140.068 22.1515L140.636 24.8389C140.455 24.8954 140.201 24.9604 139.873 25.0339C139.545 25.113 139.147 25.1611 138.678 25.178C137.807 25.2119 137.044 25.0961 136.389 24.8304C135.739 24.5648 135.233 24.1522 134.871 23.5927C134.51 23.0332 134.331 22.3267 134.337 21.4733V8.85834ZM148.495 25.2543C147.178 25.2543 146.039 24.9746 145.078 24.415C144.123 23.8499 143.386 23.0642 142.866 22.0582C142.346 21.0465 142.086 19.8738 142.086 18.5399C142.086 17.1948 142.346 16.0192 142.866 15.0132C143.386 14.0015 144.123 13.2159 145.078 12.6564C146.039 12.0912 147.178 11.8086 148.495 11.8086C149.812 11.8086 150.948 12.0912 151.903 12.6564C152.864 13.2159 153.604 14.0015 154.124 15.0132C154.644 16.0192 154.904 17.1948 154.904 18.5399C154.904 19.8738 154.644 21.0465 154.124 22.0582C153.604 23.0642 152.864 23.8499 151.903 24.415C150.948 24.9746 149.812 25.2543 148.495 25.2543ZM148.512 22.4567C149.111 22.4567 149.611 22.2871 150.013 21.948C150.414 21.6032 150.716 21.1341 150.92 20.5407C151.129 19.9473 151.233 19.2719 151.233 18.5145C151.233 17.7572 151.129 17.0818 150.92 16.4883C150.716 15.8949 150.414 15.4258 150.013 15.081C149.611 14.7363 149.111 14.5639 148.512 14.5639C147.907 14.5639 147.399 14.7363 146.986 15.081C146.579 15.4258 146.271 15.8949 146.062 16.4883C145.858 17.0818 145.757 17.7572 145.757 18.5145C145.757 19.2719 145.858 19.9473 146.062 20.5407C146.271 21.1341 146.579 21.6032 146.986 21.948C147.399 22.2871 147.907 22.4567 148.512 22.4567ZM157.253 25V11.9782H160.754V14.2502H160.89C161.127 13.442 161.525 12.8316 162.085 12.419C162.644 12.0008 163.289 11.7916 164.018 11.7916C164.199 11.7916 164.394 11.8029 164.603 11.8256C164.812 11.8482 164.996 11.8792 165.154 11.9188V15.1234C164.984 15.0725 164.75 15.0273 164.45 14.9878C164.151 14.9482 163.877 14.9284 163.628 14.9284C163.097 14.9284 162.622 15.0443 162.204 15.276C161.791 15.5021 161.463 15.8186 161.22 16.2255C160.983 16.6324 160.864 17.1016 160.864 17.6328V25H157.253Z" fill="white"></path>
<mask id="mask0_81_693" style="mask-type:alpha" maskUnits="userSpaceOnUse" x="0" y="56" width="13" height="73">
<path d="M-5.65158e-06 56.5599L0 128.096L12.4467 128.096L12.4467 56.5599L-5.65158e-06 56.5599Z" fill="#FF0000"></path>
</mask>
<g mask="url(#mask0_81_693)">
<path fill-rule="evenodd" clip-rule="evenodd" d="M6.79439 128.092L9.50564 128.092C7.16557 120.574 4.76183 105.719 4.76183 92.3249C4.76183 78.9298 7.16557 64.0742 9.50563 56.5563L6.79439 56.5563C3.32047 64.3332 -0.00293379 76.1107 -0.00293251 92.3249C-0.00293123 108.538 3.32048 120.314 6.79439 128.092Z" fill="#D42126"></path>
</g>
<path d="M88.7557 63.3531C85.896 63.0084 82.9219 62.032 82.9219 60.9981C82.9219 59.2175 85.7244 58.2984 88.3553 58.2984H88.9273C91.7297 58.2984 94.3035 59.8493 94.3035 61.0555V61.6873C94.3035 61.8596 94.475 62.032 94.6466 62.032H95.7905C95.9621 62.032 96.1336 61.8596 96.1336 61.6873V60.9981C96.1336 58.3559 92.2445 56.403 88.8129 56.403H88.1837C84.6949 56.4604 80.9202 57.8964 80.9202 60.9981C80.9202 64.4444 87.669 65.0762 88.4125 65.1337C91.1006 65.3634 94.2463 66.4547 94.2463 67.4886C94.2463 69.2692 91.4438 70.2457 88.8701 70.2457H88.2409C85.4385 70.2457 82.8647 68.6949 82.8647 67.4886V66.8568C82.8647 66.6845 82.6932 66.5122 82.5216 66.5122H81.3777C81.2061 66.5122 81.0346 66.6845 81.0346 66.8568V67.4886C81.0346 70.1308 84.9237 72.0837 88.3553 72.0837H88.9273C92.4733 72.0837 96.248 70.6478 96.248 67.4886C96.248 64.0998 89.5564 63.4105 88.7557 63.3531ZM118.897 56.3455H117.753C117.581 56.3455 117.41 56.5178 117.41 56.6902V67.4312C117.41 69.2118 114.607 70.1883 112.033 70.1883H111.404C108.602 70.1883 106.028 68.6374 106.028 67.4312V56.6902C106.028 56.5178 105.857 56.3455 105.685 56.3455H104.541C104.37 56.3455 104.198 56.5178 104.198 56.6902V67.5461C104.198 70.1883 108.087 72.1412 111.519 72.1412H112.148C114.836 72.1412 117.124 71.3945 118.325 70.0734C119.011 69.3267 119.354 68.4651 119.24 67.4312V56.6902C119.183 56.5178 119.068 56.3455 118.897 56.3455ZM140.63 69.0395C140.63 69.3267 140.23 69.499 140.058 69.2692L130.45 56.9773C130.107 56.5753 129.649 56.3455 129.077 56.3455C128.848 56.3455 128.62 56.403 128.391 56.4604C127.762 56.7476 127.304 57.322 127.304 58.0112V71.7391C127.304 71.9114 127.476 72.0837 127.647 72.0837H128.791C128.963 72.0837 129.134 71.9114 129.134 71.7391L129.249 59.3898C129.249 59.1026 129.649 58.9303 129.821 59.2175L139.372 71.5094C139.658 71.9114 140.173 72.1412 140.687 72.1412C140.916 72.1412 141.145 72.0837 141.374 72.0263C142.003 71.7965 142.46 71.1647 142.46 70.4755V56.6902C142.46 56.5178 142.289 56.3455 142.117 56.3455H140.973C140.802 56.3455 140.63 56.5178 140.63 56.6902V69.0395ZM159.733 56.3455C154.585 56.3455 150.353 59.8493 150.353 64.2146C150.353 68.58 154.528 72.0837 159.733 72.0837C164.88 72.0837 169.113 68.58 169.113 64.2146C169.113 59.8493 164.88 56.3455 159.733 56.3455ZM159.733 70.3606C155.672 70.3606 152.298 67.6035 152.298 64.3295C152.298 60.9981 155.615 58.2984 159.733 58.2984C163.908 58.2984 167.168 60.9406 167.168 64.3295C167.168 67.661 163.851 70.3606 159.733 70.3606Z" fill="white"></path>
<path d="M62.4269 114.791H51.1501L48.816 120.096H45.6937L55.3031 98.8764H58.3042L67.944 120.096H64.761L62.4269 114.791ZM61.3659 112.366L56.7885 101.968L52.2111 112.366H61.3659ZM92.4503 120.339C90.8537 120.339 89.3077 120.096 87.8123 119.611C86.337 119.106 85.175 118.459 84.3262 117.671L85.4478 115.306C86.2561 116.034 87.2868 116.63 88.5398 117.095C89.813 117.54 91.1165 117.762 92.4503 117.762C94.2085 117.762 95.5221 117.469 96.3911 116.883C97.26 116.276 97.6945 115.478 97.6945 114.488C97.6945 113.76 97.452 113.174 96.967 112.73C96.5022 112.265 95.9161 111.911 95.2088 111.669C94.5217 111.426 93.5416 111.153 92.2684 110.85C90.6719 110.466 89.3785 110.082 88.3882 109.698C87.4182 109.314 86.5795 108.728 85.8722 107.94C85.1851 107.132 84.8415 106.051 84.8415 104.697C84.8415 103.565 85.1345 102.544 85.7206 101.635C86.3269 100.726 87.2363 99.998 88.4488 99.4523C89.6614 98.9067 91.167 98.6339 92.9656 98.6339C94.2186 98.6339 95.4513 98.7955 96.6639 99.1189C97.8764 99.4422 98.9172 99.907 99.7862 100.513L98.7858 102.938C97.8966 102.373 96.9468 101.948 95.9363 101.665C94.9259 101.362 93.9356 101.211 92.9656 101.211C91.2478 101.211 89.9544 101.524 89.0854 102.15C88.2366 102.777 87.8123 103.585 87.8123 104.575C87.8123 105.303 88.0548 105.899 88.5398 106.364C89.0248 106.808 89.621 107.162 90.3283 107.425C91.0558 107.667 92.036 107.93 93.2687 108.213C94.8653 108.597 96.1485 108.981 97.1186 109.365C98.0886 109.749 98.9172 110.335 99.6043 111.123C100.312 111.911 100.665 112.972 100.665 114.306C100.665 115.418 100.362 116.438 99.7559 117.368C99.1496 118.277 98.2301 119.005 96.9973 119.55C95.7646 120.076 94.2489 120.339 92.4503 120.339ZM126.435 120.339C124.838 120.339 123.292 120.096 121.797 119.611C120.322 119.106 119.16 118.459 118.311 117.671L119.432 115.306C120.241 116.034 121.271 116.63 122.524 117.095C123.798 117.54 125.101 117.762 126.435 117.762C128.193 117.762 129.507 117.469 130.376 116.883C131.245 116.276 131.679 115.478 131.679 114.488C131.679 113.76 131.437 113.174 130.952 112.73C130.487 112.265 129.901 111.911 129.193 111.669C128.506 111.426 127.526 111.153 126.253 110.85C124.656 110.466 123.363 110.082 122.373 109.698C121.403 109.314 120.564 108.728 119.857 107.94C119.17 107.132 118.826 106.051 118.826 104.697C118.826 103.565 119.119 102.544 119.705 101.635C120.311 100.726 121.221 99.998 122.433 99.4523C123.646 98.9067 125.152 98.6339 126.95 98.6339C128.203 98.6339 129.436 98.7955 130.648 99.1189C131.861 99.4422 132.902 99.907 133.771 100.513L132.77 102.938C131.881 102.373 130.931 101.948 129.921 101.665C128.91 101.362 127.92 101.211 126.95 101.211C125.232 101.211 123.939 101.524 123.07 102.15C122.221 102.777 121.797 103.585 121.797 104.575C121.797 105.303 122.039 105.899 122.524 106.364C123.009 106.808 123.606 107.162 124.313 107.425C125.04 107.667 126.021 107.93 127.253 108.213C128.85 108.597 130.133 108.981 131.103 109.365C132.073 109.749 132.902 110.335 133.589 111.123C134.296 111.911 134.65 112.972 134.65 114.306C134.65 115.418 134.347 116.438 133.74 117.368C133.134 118.277 132.215 119.005 130.982 119.55C129.749 120.076 128.233 120.339 126.435 120.339ZM169.635 117.459V120.096H154.235V98.8764H169.21V101.514H157.267V108.031H167.907V110.608H157.267V117.459H169.635ZM193.914 101.514H186.638V98.8764H204.19V101.514H196.915V120.096H193.914V101.514Z" fill="white"></path>
<mask id="mask1_81_693" style="mask-type:alpha" maskUnits="userSpaceOnUse" x="237" y="56" width="14" height="73">
<path d="M250.033 56.5599L250.033 128.096L237.586 128.096L237.586 56.5599L250.033 56.5599Z" fill="#FF0000"></path>
</mask>
<g mask="url(#mask1_81_693)">
<path fill-rule="evenodd" clip-rule="evenodd" d="M243.239 128.092L240.527 128.092C242.867 120.574 245.271 105.719 245.271 92.3249C245.271 78.9298 242.867 64.0742 240.527 56.5563L243.239 56.5563C246.712 64.3332 250.036 76.1107 250.036 92.3249C250.036 108.538 246.712 120.314 243.239 128.092Z" fill="#D42126"></path>
</g>
</svg>